<?xml version="1.0" encoding="utf-8"?>
<!-- Generator: Adobe Illustrator 25.2.0, SVG Export Plug-In . SVG Version: 6.00 Build 0)  -->
<svg version="1.1" id="Warstwa_1" xmlns="http://www.w3.org/2000/svg" xmlns:xlink="http://www.w3.org/1999/xlink" x="0px" y="0px"
	 viewBox="0 0 160 36" style="enable-background:new 0 0 160 36;" xml:space="preserve">
<style type="text/css">
	.st0{fill:url(#SVGID_1_);}
	.st1{fill:url(#SVGID_2_);}
	.st2{fill:url(#SVGID_3_);}
	.st3{fill:url(#SVGID_4_);}
</style>
<g>
	<linearGradient id="SVGID_1_" gradientUnits="userSpaceOnUse" x1="25.4305" y1="17.9583" x2="62.0284" y2="17.9583">
		<stop  offset="0" style="stop-color:#FF056C"/>
		<stop  offset="1" style="stop-color:#FF8400"/>
	</linearGradient>
	<path class="st0" d="M61.31,17.96c-2.76-4.61-5.46-9.26-8.19-13.89c-0.71-1.2-1.66-2.16-2.91-2.8c-1.05-0.54-2.09-0.55-3.14,0
		c-1.43,0.75-2.51,1.85-3.33,3.23c-5.39,9.01-10.79,18-16.19,27c-0.69,1.15-1.38,2.31-2.12,3.54c2.37,0,4.64-0.01,6.91,0.01
		c0.45,0.01,0.7-0.13,0.94-0.52c4.91-8.09,9.83-16.18,14.75-24.26c0.12-0.2,0.25-0.39,0.42-0.67c2.03,3.36,4.01,6.64,6.05,10.02
		c-0.35,0-0.55,0-0.76,0c-2.63,0-5.27,0.01-7.9-0.01c-0.34,0-0.55,0.09-0.73,0.4c-1,1.68-2.02,3.34-3.03,5
		c-0.07,0.12-0.13,0.24-0.23,0.43c0.25,0,0.44,0,0.62,0c4.98,0,14.26-0.01,19.25-0.02c0.42,0,0.26-1.27,0.3-4.84
		C62.04,19.61,61.81,18.79,61.31,17.96z"/>
	<linearGradient id="SVGID_2_" gradientUnits="userSpaceOnUse" x1="11.1073" y1="18.0258" x2="27.7819" y2="18.0258">
		<stop  offset="0" style="stop-color:#FF056C"/>
		<stop  offset="1" style="stop-color:#FF8400"/>
	</linearGradient>
	<path class="st1" d="M16.81,18.79c-0.2-0.3-0.23-0.51-0.02-0.83c3.57-5.51,7.12-11.03,10.68-16.54c0.09-0.14,0.18-0.29,0.32-0.51
		c-2.11,0-4.1-0.01-6.1,0.01c-0.16,0-0.37,0.16-0.47,0.3c-3.09,4.78-6.17,9.57-9.25,14.35c-1.16,1.79-1.14,3.55,0.05,5.33
		c3.05,4.6,6.09,9.2,9.13,13.81c0.09,0.14,0.2,0.26,0.33,0.43c0.12-0.15,0.21-0.24,0.27-0.35c0.86-1.43,1.71-2.86,2.58-4.28
		c0.17-0.28,0.08-0.45-0.07-0.68C21.77,26.16,19.29,22.47,16.81,18.79z"/>
	<linearGradient id="SVGID_3_" gradientUnits="userSpaceOnUse" x1="2.5" y1="17.9829" x2="8.3615" y2="17.9829">
		<stop  offset="0" style="stop-color:#FF056C"/>
		<stop  offset="1" style="stop-color:#FF8400"/>
	</linearGradient>
	<path class="st2" d="M7.84,0.95C6.27,0.96,4.7,0.95,3.13,0.95c-0.63,0-0.63,0-0.63,0.66c0,10.94,0,21.87,0,32.81
		c0,0.19,0,0.38,0,0.6c1.99,0,3.91,0,5.84,0c0.01-0.16,0.02-0.27,0.02-0.38c0-11.06,0-22.12,0.01-33.19
		C8.36,1.05,8.23,0.94,7.84,0.95z"/>
	<linearGradient id="SVGID_4_" gradientUnits="userSpaceOnUse" x1="65.2984" y1="18.0302" x2="157.5" y2="18.0302">
		<stop  offset="0" style="stop-color:#FF056C"/>
		<stop  offset="1" style="stop-color:#FF8400"/>
	</linearGradient>
	<path class="st3" d="M157.17,0.95h-0.19c-0.01,0-0.02,0-0.03,0c-3.21,0-6.43,0-9.64,0H111.7c-1.32-0.02-2.64-0.01-3.96,0h-37.1
		c-0.01,0-0.01,0-0.02,0c-0.39,0-0.78,0-1.17,0h-0.15c0,0,0,0,0,0c-1.08,0-2.16,0-3.24,0.01c-0.74,0-0.74,0-0.74,0.76
		c0,10.87,0,21.75,0,32.62c0,0.03,0,0.06,0,0.1c0,0.63,0,0.63,0.62,0.64c1.54,0,3.08,0,4.62,0c0.17,0,0.34,0,0.56,0
		c0.01-0.21,0.03-0.33,0.03-0.46c0-9.28,0-18.56,0.01-27.83h3.31c0,0,0,0,0,0c0.23,0,0.43,0,0.64,0c1.9,0,3.8,0,5.7,0h0.59
		c2.01,0,4.02,0,6.03,0.02c1.02,0.01,2.06,0.11,3.07,0.28c1.46,0.25,2.8,0.82,3.82,1.97c2.06,2.32,2.45,7.61-2.07,9.69
		c-1.5,0.69-3.1,0.89-4.72,0.9c-4.19,0.01-8.38,0.01-12.57,0c-0.4,0-0.55,0.09-0.54,0.53c0.03,1.6,0.01,3.21,0.01,4.81
		c0,0.15,0,0.3,0,0.49c0.28,0,0.48,0,0.68,0c2.92,0,5.84,0.01,8.76-0.01c0.4,0,0.68,0.11,0.96,0.39c2.94,2.98,5.9,5.95,8.87,8.91
		c0.18,0.18,0.48,0.31,0.73,0.31c2.57,0.02,5.14,0.01,7.71,0.01c0.13,0,0.27-0.02,0.51-0.03c-3.44-3.45-6.81-6.83-10.21-10.24
		c0.23-0.08,0.45-0.15,0.67-0.22c2.67-0.83,4.97-2.23,6.65-4.52c1.8-2.45,2.36-5.2,2.06-8.19c-0.2-1.92-0.77-3.61-1.72-5.09h4.17
		c0.05,0.01,0.11,0.01,0.17,0.01c3.32,0.01,6.63-0.06,9.94,0.09c3.64,0.17,6.44,1.96,8.4,5.01c1.48,2.31,1.88,4.87,1.64,7.57
		c-0.24,2.74-1.35,5.06-3.35,6.94c-2.22,2.09-4.93,2.83-7.9,2.84c-3.22,0.02-6.44,0.01-9.66,0c-0.69,0-1.37-0.07-2.14-0.12
		c0.16,0.17,0.27,0.3,0.39,0.42c1.37,1.37,2.75,2.73,4.12,4.09c0.47,0.47,0.87,1.12,1.44,1.35c0.59,0.24,1.34,0.09,2.02,0.07
		c2.23-0.05,4.48,0.03,6.7-0.22c4.39-0.49,7.93-2.61,10.62-6.11c3.35-4.36,4.22-9.3,3.32-14.62c-0.44-2.64-1.58-5.19-3.33-7.34h8.45
		c0.81,0,1.62,0,2.43,0c0.67,0,0.67,0,0.67,0.67c0,8.98,0,17.97,0,26.95c0,0.2,0,0.4,0,0.63c1.97,0,3.88,0,5.85,0
		c0-0.27,0-0.47,0-0.68c0-8.98,0-17.97,0-26.95c0-0.63,0-0.63,0.61-0.63c4.06,0,8.13,0,12.19,0c0.04,0,0.08,0,0.11,0h0.21
		c0.02,0,0.03-0.01,0.05-0.01c0.09,0,0.18-0.01,0.28-0.01c0-0.1,0-0.18,0-0.26c0-0.02,0.01-0.03,0.01-0.05V1.28
		C157.5,1.1,157.35,0.95,157.17,0.95z"/>
</g>
</svg>
