<?xml version="1.0" encoding="utf-8"?>
<!-- Generator: Adobe Illustrator 25.2.0, SVG Export Plug-In . SVG Version: 6.00 Build 0)  -->
<svg version="1.1" id="Warstwa_1" xmlns="http://www.w3.org/2000/svg" xmlns:xlink="http://www.w3.org/1999/xlink" x="0px" y="0px"
	 viewBox="0 0 116.22 25.51" style="enable-background:new 0 0 116.22 25.51;" xml:space="preserve">
<style type="text/css">
	.st0{fill:#FFFFFF;}
</style>
<g>
	<path class="st0" d="M44.44,12.73c-2.02-3.37-3.99-6.77-5.99-10.16c-0.52-0.88-1.21-1.58-2.13-2.05c-0.77-0.39-1.53-0.4-2.3,0
		c-1.05,0.55-1.84,1.35-2.44,2.36c-3.94,6.59-7.89,13.17-11.84,19.75c-0.5,0.84-1.01,1.69-1.55,2.59c1.73,0,3.39-0.01,5.05,0.01
		c0.33,0.01,0.51-0.1,0.69-0.38c3.59-5.92,7.19-11.84,10.79-17.75c0.09-0.15,0.18-0.29,0.31-0.49c1.48,2.46,2.93,4.86,4.43,7.33
		c-0.26,0-0.4,0-0.56,0c-1.92,0-3.85,0.01-5.78-0.01c-0.25,0-0.4,0.07-0.53,0.29c-0.73,1.23-1.48,2.44-2.22,3.66
		c-0.05,0.09-0.1,0.18-0.17,0.31c0.18,0,0.32,0,0.45,0c3.64,0,10.43-0.01,14.08-0.01c0.31,0,0.19-0.93,0.22-3.54
		C44.97,13.93,44.8,13.33,44.44,12.73z"/>
	<path class="st0" d="M11.88,13.33c-0.15-0.22-0.17-0.37-0.01-0.61c2.61-4.03,5.21-8.07,7.81-12.1c0.07-0.1,0.13-0.21,0.23-0.37
		c-1.54,0-3-0.01-4.46,0.01c-0.12,0-0.27,0.12-0.34,0.22c-2.26,3.5-4.51,7-6.77,10.5c-0.85,1.31-0.83,2.6,0.04,3.9
		c2.23,3.36,4.45,6.73,6.68,10.1c0.07,0.1,0.15,0.19,0.24,0.31c0.09-0.11,0.15-0.18,0.2-0.26c0.63-1.05,1.25-2.09,1.89-3.13
		c0.12-0.2,0.06-0.33-0.05-0.5C15.51,18.72,13.7,16.03,11.88,13.33z"/>
	<path class="st0" d="M5.32,0.28c-1.15,0.01-2.3,0-3.45,0c-0.46,0-0.46,0-0.46,0.48c0,8,0,16,0,24c0,0.14,0,0.28,0,0.44
		c1.46,0,2.86,0,4.27,0c0.01-0.12,0.01-0.2,0.01-0.28c0-8.09,0-16.18,0.01-24.28C5.7,0.36,5.61,0.28,5.32,0.28z"/>
	<path class="st0" d="M114.55,0.28h-0.14c-0.01,0-0.01,0-0.02,0c-2.35,0-4.7,0-7.05,0H81.29c-0.97-0.01-1.93-0.01-2.9,0H51.26
		c-0.01,0-0.01,0-0.01,0c-0.29,0-0.57,0-0.86,0h-0.11l0,0c-0.79,0-1.58,0-2.37,0.01c-0.54,0-0.54,0-0.54,0.56
		c0,7.95,0,15.91,0,23.86c0,0.02,0,0.04,0,0.07c0,0.46,0,0.46,0.45,0.47c1.13,0,2.25,0,3.38,0c0.12,0,0.25,0,0.41,0
		c0.01-0.15,0.02-0.24,0.02-0.34c0-6.79,0-13.58,0.01-20.36h2.42l0,0c0.17,0,0.31,0,0.47,0c1.39,0,2.78,0,4.17,0h0.43
		c1.47,0,2.94,0,4.41,0.01c0.75,0.01,1.51,0.08,2.25,0.2c1.07,0.18,2.05,0.6,2.79,1.44c1.51,1.7,1.79,5.57-1.51,7.09
		c-1.1,0.5-2.27,0.65-3.45,0.66c-3.06,0.01-6.13,0.01-9.19,0c-0.29,0-0.4,0.07-0.39,0.39c0.02,1.17,0.01,2.35,0.01,3.52
		c0,0.11,0,0.22,0,0.36c0.2,0,0.35,0,0.5,0c2.14,0,4.27,0.01,6.41-0.01c0.29,0,0.5,0.08,0.7,0.29c2.15,2.18,4.32,4.35,6.49,6.52
		c0.13,0.13,0.35,0.23,0.53,0.23c1.88,0.01,3.76,0.01,5.64,0.01c0.1,0,0.2-0.01,0.37-0.02c-2.52-2.52-4.98-5-7.47-7.49
		c0.17-0.06,0.33-0.11,0.49-0.16c1.95-0.61,3.64-1.63,4.86-3.31c1.32-1.79,1.73-3.8,1.51-5.99c-0.15-1.4-0.56-2.64-1.26-3.72h3.05
		c0.04,0.01,0.08,0.01,0.12,0.01c2.43,0.01,4.85-0.04,7.27,0.07c2.66,0.12,4.71,1.43,6.14,3.66c1.08,1.69,1.38,3.56,1.2,5.54
		c-0.18,2-0.99,3.7-2.45,5.08c-1.62,1.53-3.61,2.07-5.78,2.08c-2.36,0.01-4.71,0.01-7.07,0c-0.5,0-1-0.05-1.57-0.09
		c0.12,0.12,0.2,0.22,0.29,0.31c1,1,2.01,2,3.01,2.99c0.34,0.34,0.64,0.82,1.05,0.99c0.43,0.18,0.98,0.07,1.48,0.05
		c1.63-0.04,3.28,0.02,4.9-0.16c3.21-0.36,5.8-1.91,7.77-4.47c2.45-3.19,3.09-6.8,2.43-10.69c-0.32-1.93-1.16-3.8-2.44-5.37h6.18
		c0.59,0,1.18,0,1.78,0c0.49,0,0.49,0,0.49,0.49c0,6.57,0,13.14,0,19.71c0,0.15,0,0.29,0,0.46c1.44,0,2.84,0,4.28,0
		c0-0.2,0-0.34,0-0.5c0-6.57,0-13.14,0-19.71c0-0.46,0-0.46,0.45-0.46c2.97,0,5.95,0,8.92,0c0.03,0,0.06,0,0.08,0h0.15
		c0.01,0,0.02-0.01,0.04-0.01c0.07,0,0.13-0.01,0.2-0.01c0-0.07,0-0.13,0-0.19c0-0.01,0.01-0.02,0.01-0.04V0.53
		C114.8,0.39,114.69,0.28,114.55,0.28z"/>
</g>
</svg>
