<svg id="Warstwa_1" data-name="Warstwa 1" xmlns="http://www.w3.org/2000/svg" xmlns:xlink="http://www.w3.org/1999/xlink" viewBox="0 0 113.39 25.07"><defs><style>.cls-1{fill:url(#Gradient_bez_nazwy_4);}.cls-2{fill:url(#Gradient_bez_nazwy_4-2);}.cls-3{fill:url(#Gradient_bez_nazwy_4-3);}.cls-4{fill:url(#Gradient_bez_nazwy_4-4);}</style><linearGradient id="Gradient_bez_nazwy_4" x1="18.19" y1="14" x2="44.96" y2="14" gradientTransform="matrix(1, 0, 0, -1, 0, 26.72)" gradientUnits="userSpaceOnUse"><stop offset="0" stop-color="#ff056c"/><stop offset="1" stop-color="#ff8400"/></linearGradient><linearGradient id="Gradient_bez_nazwy_4-2" x1="7.72" y1="13.95" x2="19.92" y2="13.95" xlink:href="#Gradient_bez_nazwy_4"/><linearGradient id="Gradient_bez_nazwy_4-3" x1="1.42" y1="13.98" x2="5.7" y2="13.98" xlink:href="#Gradient_bez_nazwy_4"/><linearGradient id="Gradient_bez_nazwy_4-4" x1="47.37" y1="13.94" x2="114.8" y2="13.94" xlink:href="#Gradient_bez_nazwy_4"/></defs><path class="cls-1" d="M44.44,12.73c-2-3.38-4-6.78-6-10.16a5.17,5.17,0,0,0-2.12-2,2.35,2.35,0,0,0-2.3,0,6.09,6.09,0,0,0-2.44,2.36q-5.91,9.89-11.84,19.75l-1.55,2.59c1.73,0,3.39,0,5,0a.7.7,0,0,0,.69-.38Q29.32,16,34.72,7.1L35,6.61l4.42,7.33H38.9c-1.93,0-3.86,0-5.78,0a.53.53,0,0,0-.53.3l-2.22,3.65-.17.32h.45l14.09,0c.3,0,.19-.93.21-3.54A3.37,3.37,0,0,0,44.44,12.73Z" transform="translate(-1.42 -0.22)"/><path class="cls-2" d="M11.88,13.33a.47.47,0,0,1,0-.6q3.92-6,7.81-12.1c.07-.1.13-.21.24-.38H15.45a.54.54,0,0,0-.34.22L8.34,11a3.29,3.29,0,0,0,0,3.9q3.34,5,6.68,10.1l.24.31a2.7,2.7,0,0,0,.2-.25c.63-1.05,1.25-2.1,1.89-3.13.12-.21.05-.33-.06-.5Z" transform="translate(-1.42 -0.22)"/><path class="cls-3" d="M5.32.28H1.88c-.46,0-.46,0-.46.49V25.21H5.69c0-.12,0-.2,0-.28q0-12.13,0-24.28C5.7.36,5.61.28,5.32.28Z" transform="translate(-1.42 -0.22)"/><path class="cls-4" d="M114.55.28H81.29c-1,0-1.93,0-2.89,0H47.91c-.54,0-.54,0-.54.56V24.78c0,.46,0,.46.45.47h3.79c0-.15,0-.24,0-.34q0-10.18,0-20.35h11.9a14.16,14.16,0,0,1,2.25.21,4.54,4.54,0,0,1,2.79,1.44,4.56,4.56,0,0,1-1.51,7.08,8.08,8.08,0,0,1-3.46.66H54.42c-.29,0-.4.07-.4.39,0,1.17,0,2.35,0,3.52v.36h6.91a.92.92,0,0,1,.7.28q3.22,3.27,6.49,6.52a.83.83,0,0,0,.53.23H74.3l.37,0c-2.51-2.52-5-5-7.46-7.49l.49-.16a9.16,9.16,0,0,0,4.86-3.3,8.32,8.32,0,0,0,1.51-6,8.52,8.52,0,0,0-1.26-3.73H76c2.43,0,4.85,0,7.27.07A7.43,7.43,0,0,1,89.4,8.3a8.59,8.59,0,0,1,1.2,5.54,7.68,7.68,0,0,1-2.45,5.07A8.1,8.1,0,0,1,82.37,21c-2.36,0-4.71,0-7.07,0-.5,0-1,0-1.56-.09l.28.31,3,3c.34.35.63.82,1,1a3.65,3.65,0,0,0,1.48,0c1.63,0,3.28,0,4.9-.16a11.08,11.08,0,0,0,7.77-4.47A13.2,13.2,0,0,0,94.67,9.92a11.63,11.63,0,0,0-2.44-5.37h8c.49,0,.49,0,.49.49V25.21H105V5c0-.46,0-.46.44-.46h9.4v-4A.25.25,0,0,0,114.55.28Z" transform="translate(-1.42 -0.22)"/></svg>